<?xml version="1.0" standalone="no"?>
<!DOCTYPE svg PUBLIC "-//W3C//DTD SVG 20010904//EN"
 "http://www.w3.org/TR/2001/REC-SVG-20010904/DTD/svg10.dtd">
<svg version="1.0" xmlns="http://www.w3.org/2000/svg"
 width="512.000000pt" height="512.000000pt" viewBox="0 0 512.000000 512.000000"
 preserveAspectRatio="xMidYMid meet">
<metadata>
Created by potrace 1.14, written by Peter Selinger 2001-2017
</metadata>
<g transform="translate(0.000000,512.000000) scale(0.100000,-0.100000)"
fill="#000000" stroke="none">
<path d="M1093 4789 c-44 -13 -110 -81 -123 -127 -6 -23 -10 -262 -10 -653 l0
-616 -62 -43 c-311 -215 -560 -530 -667 -845 -81 -240 -90 -515 -25 -768 18
-70 73 -212 113 -290 135 -263 401 -533 707 -720 269 -164 621 -296 934 -352
19 -3 42 -7 50 -9 36 -7 161 -23 245 -32 76 -9 490 -11 560 -4 39 5 102 11
140 15 39 3 79 8 90 10 11 3 38 7 60 10 89 12 317 70 440 110 638 211 1125
621 1318 1110 71 181 96 322 92 520 -3 131 -7 172 -21 235 -3 14 -8 36 -11 50
-19 106 -113 319 -196 448 -99 152 -286 352 -424 452 l-62 45 -1 640 c-1 352
-3 649 -5 659 -10 52 -18 67 -55 105 -22 22 -57 45 -77 50 -49 14 -2963 13
-3010 0z"/>
</g>
</svg>
